<svg id="Layer_1" data-name="Layer 1" xmlns="http://www.w3.org/2000/svg" viewBox="0 0 139.31 50.38"><defs><style>.cls-1{fill:#0d1173;}</style></defs><path class="cls-1" d="M10.22,15.21V11.45h13v3.76l-3.35.65V38.22l3.35.64V42.6h-13V38.86l3.35-.64V15.86Z" transform="translate(-10.22 -11)"/><path class="cls-1" d="M38.15,11.45v3.76l-3.35.65V32.12a5.93,5.93,0,0,0,1.67,4.61A6.48,6.48,0,0,0,41,38.26a6.65,6.65,0,0,0,4.62-1.52,5.91,5.91,0,0,0,1.68-4.62V15.86L44,15.21V11.45H57v3.76l-3.35.65V32.12a9.89,9.89,0,0,1-3.47,8.09A13.93,13.93,0,0,1,41,43.05,13.82,13.82,0,0,1,32,40.21a9.93,9.93,0,0,1-3.44-8.09V15.86l-3.33-.65V11.45h13Z" transform="translate(-10.22 -11)"/><path class="cls-1" d="M69.76,15.21l-2.39.43,5.54,18.68L73.3,36h.13l.36-1.66,5.57-18.73L77,15.21V11.45H88.43v3.76l-2.63.35-9.21,27H70.14l-9.24-27-2.57-.35V11.45H69.76Z" transform="translate(-10.22 -11)"/><path class="cls-1" d="M118.65,27.26a16.51,16.51,0,0,1-3.93,11.32,14,14,0,0,1-20.53,0,16.59,16.59,0,0,1-3.9-11.32v-.47a16.67,16.67,0,0,1,3.89-11.3A12.89,12.89,0,0,1,104.41,11a13.07,13.07,0,0,1,10.3,4.49,16.5,16.5,0,0,1,3.94,11.3Zm-6.25-.51a13.87,13.87,0,0,0-2-7.86,6.71,6.71,0,0,0-6-3,6.57,6.57,0,0,0-5.9,3,14.35,14.35,0,0,0-1.94,7.88v.51a14.31,14.31,0,0,0,2,7.93,6.59,6.59,0,0,0,5.9,3,6.7,6.7,0,0,0,6-3,14.06,14.06,0,0,0,2-7.93Z" transform="translate(-10.22 -11)"/><path class="cls-1" d="M120,38.86l2.64-.51,8.27-11.45-8-11.15-2.63-.54V11.45h12v3.76l-2.55.28,4.83,7.64,4.86-7.64-2.52-.28V11.45H149v3.76l-2.62.54L138.27,26.9l8.44,11.42,2.77.54V42.6H137.17V38.86l2.5-.26-5-7.87-5,7.87,2.51.26V42.6H120Z" transform="translate(-10.22 -11)"/><path class="cls-1" d="M13.6,53.17l-.71.15v0l.71.15,4.63,1.89v1.66l-6.76-3.13V52.71l6.76-3.12v1.65Z" transform="translate(-10.22 -11)"/><path class="cls-1" d="M25.59,45.93a5,5,0,0,1,5.24,5.19v1.64a5.07,5.07,0,0,1-1.44,3.75A5.13,5.13,0,0,1,25.59,58H20.53v-1l1.36-.23V47.21L20.53,47v-1h5.06Zm-2.07,1.28v9.47h2.07a3.33,3.33,0,0,0,2.64-1.1,4.08,4.08,0,0,0,1-2.82V51.1a4,4,0,0,0-1-2.79,3.3,3.3,0,0,0-2.64-1.1Z" transform="translate(-10.22 -11)"/><path class="cls-1" d="M37.22,58.12a3.79,3.79,0,0,1-3-1.24,4.65,4.65,0,0,1-1.11-3.22v-.37a4.55,4.55,0,0,1,1.14-3.17A3.5,3.5,0,0,1,37,48.85a3.39,3.39,0,0,1,2.74,1.09,4.34,4.34,0,0,1,.93,2.91v1H34.82l0,0A3.54,3.54,0,0,0,35.45,56a2.1,2.1,0,0,0,1.77.83,4.34,4.34,0,0,0,1.46-.23A3.66,3.66,0,0,0,39.76,56L40.39,57a3.82,3.82,0,0,1-1.27.78A4.94,4.94,0,0,1,37.22,58.12Zm-.25-8a1.77,1.77,0,0,0-1.4.69,3.26,3.26,0,0,0-.71,1.73v0H39v-.21a2.52,2.52,0,0,0-.51-1.61A1.87,1.87,0,0,0,37,50.13Z" transform="translate(-10.22 -11)"/><path class="cls-1" d="M45.9,50.06l-1.08.17,1.85,5.09.15.64h0l.16-.64,1.79-5.09-1.09-.17V49H51.2v1l-.74.13-3,7.76H46.21l-3-7.76-.74-.13V49H45.9Z" transform="translate(-10.22 -11)"/><path class="cls-1" d="M57,58.12a3.8,3.8,0,0,1-3-1.24,4.69,4.69,0,0,1-1.1-3.22v-.37A4.55,4.55,0,0,1,54,50.12a3.5,3.5,0,0,1,2.7-1.27,3.41,3.41,0,0,1,2.74,1.09,4.34,4.34,0,0,1,.93,2.91v1H54.57l0,0A3.54,3.54,0,0,0,55.2,56a2.1,2.1,0,0,0,1.76.83,4.3,4.3,0,0,0,1.46-.23A3.42,3.42,0,0,0,59.5,56L60.14,57a3.92,3.92,0,0,1-1.27.78A5,5,0,0,1,57,58.12Zm-.24-8a1.79,1.79,0,0,0-1.41.69,3.34,3.34,0,0,0-.71,1.73l0,0h4.13v-.21a2.52,2.52,0,0,0-.51-1.61A1.85,1.85,0,0,0,56.72,50.13Z" transform="translate(-10.22 -11)"/><path class="cls-1" d="M62.45,46.12v-1h3V56.68l1.35.23v1H62.45v-1l1.35-.23V46.35Z" transform="translate(-10.22 -11)"/><path class="cls-1" d="M68.54,53.4a4.92,4.92,0,0,1,1.08-3.27,3.63,3.63,0,0,1,2.93-1.28,3.68,3.68,0,0,1,2.94,1.28,4.88,4.88,0,0,1,1.08,3.27v.18a4.88,4.88,0,0,1-1.08,3.27,4,4,0,0,1-5.87,0,4.88,4.88,0,0,1-1.08-3.27Zm1.64.18a4.25,4.25,0,0,0,.6,2.35,2.17,2.17,0,0,0,3.55,0,4.25,4.25,0,0,0,.6-2.35V53.4a4.26,4.26,0,0,0-.6-2.34,2.17,2.17,0,0,0-3.56,0,4.26,4.26,0,0,0-.59,2.34Z" transform="translate(-10.22 -11)"/><path class="cls-1" d="M78.54,60.33l1.35-.23V50.3l-1.35-.24V49h2.75l.15,1.09a3.06,3.06,0,0,1,1.09-.94A3.34,3.34,0,0,1,84,48.85a3,3,0,0,1,2.59,1.32,6,6,0,0,1,.92,3.48v.17a4.91,4.91,0,0,1-.93,3.12A3.05,3.05,0,0,1,84,58.12a3.64,3.64,0,0,1-1.45-.27A2.87,2.87,0,0,1,81.52,57V60.1l1.35.23v1.05H78.54Zm7.35-6.68a4.7,4.7,0,0,0-.6-2.5,1.93,1.93,0,0,0-1.77-1,2.18,2.18,0,0,0-1.19.32,2.37,2.37,0,0,0-.81.85v4.35a2.29,2.29,0,0,0,.8.86,2.32,2.32,0,0,0,1.22.3A2,2,0,0,0,85.29,56a3.68,3.68,0,0,0,.6-2.19Z" transform="translate(-10.22 -11)"/><path class="cls-1" d="M89.37,56.91l1.35-.23V50.3l-1.35-.24V49h2.82l.11,1.16a3,3,0,0,1,1.11-1A3.43,3.43,0,0,1,95,48.85a2.83,2.83,0,0,1,1.54.41,2.55,2.55,0,0,1,1,1.24,3.24,3.24,0,0,1,1.12-1.2,2.9,2.9,0,0,1,1.62-.45,2.68,2.68,0,0,1,2.17.94,4.26,4.26,0,0,1,.8,2.82v4.07l1.35.23v1h-4.34v-1l1.35-.23V52.59a2.93,2.93,0,0,0-.46-1.87,1.63,1.63,0,0,0-1.35-.55,1.71,1.71,0,0,0-1.37.6,2.53,2.53,0,0,0-.6,1.51v4.4l1.35.23v1H94.79v-1l1.36-.23V52.59a2.94,2.94,0,0,0-.47-1.84,1.68,1.68,0,0,0-1.36-.58,2.2,2.2,0,0,0-1.23.31,1.93,1.93,0,0,0-.73.86v5.34l1.35.23v1H89.37Z" transform="translate(-10.22 -11)"/><path class="cls-1" d="M110.43,58.12a3.77,3.77,0,0,1-3-1.24,4.65,4.65,0,0,1-1.11-3.22v-.37a4.55,4.55,0,0,1,1.14-3.17,3.5,3.5,0,0,1,2.7-1.27,3.4,3.4,0,0,1,2.74,1.09,4.34,4.34,0,0,1,.93,2.91v1H108l0,0a3.47,3.47,0,0,0,.65,2.12,2.1,2.1,0,0,0,1.77.83,4.28,4.28,0,0,0,1.45-.23A3.42,3.42,0,0,0,113,56L113.6,57a3.82,3.82,0,0,1-1.27.78A4.94,4.94,0,0,1,110.43,58.12Zm-.25-8a1.76,1.76,0,0,0-1.4.69,3.27,3.27,0,0,0-.72,1.73l0,0h4.14v-.21a2.47,2.47,0,0,0-.52-1.61A1.85,1.85,0,0,0,110.18,50.13Z" transform="translate(-10.22 -11)"/><path class="cls-1" d="M115.9,56.91l1.35-.23V50.3l-1.35-.24V49h2.81l.11,1.33A3.24,3.24,0,0,1,120,49.24a3,3,0,0,1,1.53-.39,2.92,2.92,0,0,1,2.25.85,3.69,3.69,0,0,1,.8,2.61v4.37l1.35.23v1h-4.34v-1l1.35-.23V52.34a2.37,2.37,0,0,0-.47-1.67,1.87,1.87,0,0,0-1.43-.5,2.24,2.24,0,0,0-1.24.34,2.56,2.56,0,0,0-.87.92v5.25l1.35.23v1H115.9Z" transform="translate(-10.22 -11)"/><path class="cls-1" d="M130.59,46.86V49h1.7v1.2h-1.7v5.43a1.23,1.23,0,0,0,.26.88,1,1,0,0,0,.7.25l.48,0,.45-.08.23,1.11A2.27,2.27,0,0,1,132,58a4.58,4.58,0,0,1-.9.09,2.11,2.11,0,0,1-1.58-.6,2.59,2.59,0,0,1-.59-1.87V50.22h-1.42V49H129V46.86Z" transform="translate(-10.22 -11)"/><path class="cls-1" d="M135.28,59H133.9l5-13h1.38Z" transform="translate(-10.22 -11)"/><path class="cls-1" d="M142.45,51.36V49.75l7.08,3.12V54.1l-7.08,3.13V55.61l5-2,.7-.14v0l-.7-.17Z" transform="translate(-10.22 -11)"/></svg>